<?xml version="1.0" encoding="iso-8859-1"?>
<!-- Generator: Adobe Illustrator 15.0.0, SVG Export Plug-In . SVG Version: 6.00 Build 0)  -->
<!DOCTYPE svg PUBLIC "-//W3C//DTD SVG 1.1//EN" "http://www.w3.org/Graphics/SVG/1.1/DTD/svg11.dtd">
<svg version="1.1" id="Layer_2" xmlns="http://www.w3.org/2000/svg" xmlns:xlink="http://www.w3.org/1999/xlink" x="0px" y="0px"
	 width="1000px" height="800px" viewBox="0 0 1000 800" style="enable-background:new 0 0 1000 800;" xml:space="preserve">
<style type="text/css">
<![CDATA[
]]>
</style>
<g>
	<path style="fill:#3B6035;" d="M767.062,278.857c-0.93-28.203-1.958-56.419-2.987-84.632c-0.421-11.447-33.408-11.583-32.974-0.127
		c0.781,22.155,1.599,44.321,2.369,66.486c1.027,29.059,3.382,58.675-3.695,87.605l-4.018-180.454
		c0-13.051-7.585-19.693-22.484-19.693c-14.913,0-23.119,11.139-23.119,24.19l-2.097,107.306c-0.668,0-1.325-0.031-2.007-0.031
		c-4.19,0-8.046,0.36-11.615,0.976l-2.106-204.572c0-18.95-5.245-28.57-15.484-28.57s-15.892,16.158-15.892,35.099l-2.64,286.575
		c0,1.517,0.061,2.839,0.137,4.1c-0.161-0.054-0.373-0.107-0.633-0.171c-13.548-3.448-21.261-9.178-29.838-18.487
		c-32.614-35.363-24.704-82.196-22.003-120.166c2.369-33.475,4.873-66.93,7.4-100.396c1.301-17.227-48.159-17.311-49.459-0.2
		c-2.74,36.398-5.442,72.791-8.021,109.2c-2.95,42.086-5.43,91.354,33.743,129.491c16.821,16.402,45.171,26.031,75.765,28.086
		l-3.224,100.763c0,13.058,19.612,11.396,43.87,11.396c24.198,0,43.845,1.661,43.845-11.396l-3.904-107.492
		c19.584,0.584,31.858-10.986,37.573-19.983C772.146,344.478,768.08,309.179,767.062,278.857z"/>
	<path style="fill:#8BC53F;" d="M644.602,46.682c-10.238,0-15.681,16.819-15.681,35.76l-2.678,286.575
		c0,1.517,0.062,2.839,0.173,4.1c-0.197-0.054,15.21,5.703,15.21,4.196l2.666-286.571c0-16.933,6.273-32.848,14.541-35.784
		C656.278,49.1,650.279,46.682,644.602,46.682z M763.853,193.954c-0.583-6.923-11.565-10.792-24.545-7.878l3.806,170.403
		c7.065-28.924,4.687-58.544,3.683-87.605c-0.757-22.156-1.576-44.332-2.355-66.487
		C744.217,196.354,755.162,193.587,763.853,193.954z M701.773,147.422c-14.876,0-23.665,11.76-23.665,24.812l-1.005,51.371
		l0.683,65.173c3.532-0.615,7.389-0.976,11.591-0.976c0.681,0,1.352,0.027,2.007,0.034l2.108-107.305
		c0-13.047,8.205-24.194,23.119-24.194c1.562,0,4.041-1.266,5.417-1.119C718.618,149.574,711.555,147.422,701.773,147.422z
		 M539.222,251.186c2.567-36.399,5.28-72.801,8.034-109.193c0.78-10.334,20.489-14.989,34.608-12.8
		c-6.197-12.998-48.803-11.12-49.98,4.504c-2.764,36.398-5.479,72.791-8.056,109.2c-2.939,42.086-5.395,91.354,33.753,129.491
		c6.954,6.756,15.879,11.688,26.069,16.095c-3.892-2.593-7.562-4.731-10.697-7.805C533.817,342.547,536.261,293.274,539.222,251.186
		z M633.135,400.41l-3.023,100.827c0,7.304,6.284,9.94,15.965,10.902c-0.248-0.842-0.569-1.6-0.569-2.609l3.756-108.695
		C643.995,400.473,639.283,400.473,633.135,400.41z"/>
</g>
<path style="fill:#8BC53F;" d="M369.134,305.042c-0.008-0.118-0.016-0.237-0.023-0.355c-0.028-0.493-0.067-0.993-0.098-1.485
	l23.602-3.447l-23.759,1.161c-1.044-15.784-2.148-31.562-3.259-47.344l22.796-9.233l-23.016,6.242
	c-0.52-7.29-1.029-14.579-1.557-21.868c-0.517-7.173-6.546-12.304-14.814-15.393l8.205-12.571l-11.809,11.401
	c-20.703-5.896-51.277-0.548-50.068,16.289c1.169,16.189,2.292,32.386,3.408,48.582l-12.638,1.447l12.732-0.058
	c0.317,4.43,0.646,8.867,0.947,13.304c1.005,14.857,1.757,29.645,0.176,44.502c-1.005,9.54-5.259,24.149-9.872,30.315
	c-0.888,1.192-5.603,5.487-6.608,6.695l-3.709-182.03l26.744-4.382l-26.799,1.732l-0.962-47.107c0-3.944-0.403-7.519-1.193-10.729
	l20.068-6.845l-20.742,4.556c-2.348-7.197-6.906-12.328-13.667-15.315l12.693-9.109l-15.663,7.975
	c-4.128-1.339-8.949-2.017-14.442-2.017c-5.736,0-10.78,1.252-15.116,3.438l-14.211-12.44l10.623,14.592
	c-8.67,6.008-13.792,16.3-14.931,28.042l-25.699-4.836l25.503,7.793c-0.023,0.69-0.066,1.378-0.066,2.079l-1.076,60.361
	l-14.638,1.016l14.606,0.591l-2.931,163.759c-1.651-1.566-3.33-3.3-4.657-4.86c-22.131-25.956-15.933-60.781-14.066-88.508
	c0.411-6.037,0.865-12.07,1.275-18.105l19.075-0.923l-18.946-0.892c1.295-18.685,2.586-37.369,3.929-56.055
	c1.025-14.194-27.926-17.728-42.802-10.596l-12.228-9.217l9.633,10.673c-3.424,2.235-5.693,5.201-5.959,8.926
	c-0.869,11.984-1.675,23.971-2.512,35.959l-26.04-0.899l25.84,3.702c-0.731,10.348-1.463,20.693-2.171,31.043L107,277.417
	l31.021,0.433c-0.277,4.128-0.591,8.252-0.869,12.379c-0.767,11.513-1.303,23.699-0.388,35.935l-25.233,7.322l25.468-4.457
	c1.984,21.09,8.608,42.172,26.369,60.046c10.283,10.333,26.071,17.356,43.871,20.799l-0.979,54.432
	c0,20.85,17.697,18.212,39.547,18.212c21.829,0,39.535,2.638,39.535-18.212l-1.017-50.098c23.219-1.945,44.896-9.695,59.11-21.881
	c8.378-7.183,14.157-15.408,18.163-24.131l23.035,5.576l-21.924-8.093c7.83-18.871,7.677-39.811,6.605-57.745l19.638-2.898
	L369.134,305.042z"/>
<path style="fill:#005738;" d="M379.581,304.785c-0.008-0.118-0.02-0.242-0.027-0.358c-0.031-0.495-0.07-0.99-0.102-1.487
	l22.178-3.976l-22.331,1.689c-1.048-15.781-2.144-31.562-3.263-47.339l21.403-9.704l-21.626,6.712
	c-0.513-7.292-1.033-14.583-1.561-21.872c-0.509-7.172-6.535-12.301-14.802-15.391l6.863-13.043l-10.466,11.874
	c-20.703-5.896-51.281-0.549-50.073,16.285c1.163,16.194,2.293,32.388,3.412,48.583l-14.05,0.99l14.152,0.399
	c0.301,4.435,0.626,8.87,0.927,13.304c1.014,14.858,1.769,29.645,0.184,44.507c-1.006,9.535-5.259,24.145-9.868,30.311
	c-0.893,1.194-5.603,5.487-6.613,6.694l-3.717-182.027l25.327-4.912l-25.375,2.261l-0.966-47.107c0-3.942-0.395-7.517-1.194-10.729
	l18.802-7.373l-19.475,5.083c-2.343-7.199-6.898-12.325-13.663-15.316l11.281-9.672l-14.258,8.539
	c-4.128-1.341-8.941-2.017-14.438-2.017c-5.732,0-10.772,1.253-15.119,3.439l-15.753-13.101l12.173,15.25
	c-8.671,6.009-13.8,16.3-14.931,28.042l-25.707-4.836l25.511,7.793c-0.02,0.692-0.066,1.378-0.066,2.081l-1.084,60.36l-16.305,0.519
	l16.281,1.09l-2.931,163.757c-1.647-1.569-3.33-3.3-4.664-4.86c-22.123-25.958-15.929-60.783-14.055-88.506
	c0.411-6.038,0.861-12.07,1.272-18.108l18.394-1.398l-18.265-0.417c1.295-18.687,2.591-37.369,3.933-56.055
	c1.021-14.194-27.918-17.729-42.802-10.598l-12.771-8.976l10.173,10.434c-3.424,2.236-5.693,5.203-5.967,8.926
	c-0.861,11.982-1.667,23.969-2.508,35.959l-27.832-1.403l27.636,4.204c-0.724,10.35-1.463,20.695-2.172,31.043l-33.012,2.331
	l32.789,0.928c-0.278,4.126-0.595,8.248-0.864,12.376c-0.771,11.513-1.307,23.701-0.396,35.931l-25.229,7.329l25.468-4.459
	c1.976,21.088,8.601,42.174,26.369,60.046c10.275,10.332,26.071,17.357,43.87,20.802l-0.978,54.432
	c0,20.848,17.709,18.209,39.542,18.209c21.833,0,39.539,2.639,39.539-18.209l-1.021-50.099c23.234-1.951,44.899-9.695,59.115-21.886
	c8.377-7.178,14.156-15.408,18.163-24.126l23.042,5.573l-21.931-8.09c7.83-18.874,7.677-39.815,6.604-57.75l18.019-3.436
	L379.581,304.785z"/>
<path style="fill:#CDDC29;" d="M496.081,756.443c-1.214,0-2.43-0.172-3.591-0.516c-2.321-0.689-56.954-17.183-112.143-58.423
	l-63.03-16.739c-2.775-0.737-5.058-2.383-6.31-4.551l-26.17-45.293c-1.561-2.699-1.329-5.867,0.611-8.394
	c1.94-2.524,5.319-4.057,8.952-4.057h11.308c-2.325-3.691-4.546-7.427-6.654-11.191h-93.936c-2.29,0-4.52-0.611-6.352-1.742
	L170.53,588.12c-2.666-1.646-4.235-4.227-4.235-6.968v-123.8c0-4.811,4.741-8.71,10.588-8.71h86.899
	c3.088,0,5.866,1.087,7.802,2.821c0.525-0.182,1.055-0.359,1.588-0.53c4.853-28.159,13.556-57.418,25.898-87.058
	c0.552-1.328,1.487-2.526,2.724-3.493c0.47-0.368,11.093-8.578,32.632-18.033c6.825-25.535,22.338-48.795,45.071-67.496
	c31.599-25.996,73.612-40.312,118.3-40.312c44.688,0,86.7,14.317,118.298,40.312c23.287,19.158,38.962,43.024,45.533,69.246
	c18.933,8.699,28.317,15.956,28.737,16.283c1.238,0.966,2.173,2.166,2.727,3.494c12.008,28.834,20.568,57.311,25.495,84.767h73.554
	c5.848,0,10.587,3.899,10.587,8.71v70.627h19.116c5.847,0,10.588,3.901,10.588,8.711v45.757c0,2.856-1.703,5.529-4.552,7.157
	l-28.234,16.12c-1.773,1.013-3.879,1.556-6.036,1.556H693.109c-2.106,3.765-4.327,7.5-6.653,11.191h11.202
	c3.633,0,7.012,1.532,8.952,4.057c1.939,2.526,2.172,5.694,0.611,8.394l-26.169,45.293c-1.254,2.168-3.535,3.813-6.311,4.551
	l-62.869,16.695c-55.209,41.271-109.877,57.777-112.201,58.467C498.512,756.271,497.296,756.443,496.081,756.443z"/>
<path style="fill:#0C1823;" d="M713.102,503.833c-0.006-2.6-0.048-5.22-0.123-7.859c0.004-0.165,0.012-0.328,0.017-0.493h-0.034
	c-1.194-38.67-10.202-81.52-29.884-128.782c0,0-57.813-45.195-186.996-45.195s-186.995,45.195-186.995,45.195
	c-19.681,47.263-28.689,90.112-29.884,128.782h-0.035c0.004,0.165,0.013,0.328,0.018,0.493c-0.077,2.64-0.118,5.26-0.124,7.859
	h0.485c11.266,183.03,216.535,243.9,216.535,243.9s205.27-60.87,216.536-243.9H713.102z"/>
<g>
	<path style="fill:#0C1823;" d="M497.797,501.1c-41.859,0-81.214-13.41-110.812-37.761c-29.6-24.351-45.9-56.726-45.9-91.164
		c0-34.436,16.301-66.812,45.9-91.163c29.598-24.351,68.953-37.761,110.812-37.761c41.861,0,81.215,13.41,110.813,37.761
		s45.9,56.727,45.9,91.163c0,34.438-16.302,66.813-45.9,91.164S539.658,501.1,497.797,501.1z M497.797,254.866
		c-78.627,0-142.595,52.625-142.595,117.31c0,64.685,63.968,117.311,142.595,117.311s142.595-52.626,142.595-117.311
		C640.392,307.491,576.424,254.866,497.797,254.866z"/>
</g>
<g style="opacity:0.91;">
	<path style="fill:#F8F6F0;" d="M589.717,682.6c17.096-12.471,32.265-25.985,45.38-40.409v-87.285h-45.38V682.6z"/>
	<path style="fill:#F8F6F0;" d="M512.133,725.929c11.979-4.955,27.896-12.306,45.379-22.404V554.905h-45.379V725.929z"/>
	<path style="fill:#F8F6F0;" d="M356.963,642.071c13.115,14.44,28.277,27.977,45.378,40.462V554.905h-45.378V642.071z"/>
	<path style="fill:#F8F6F0;" d="M434.548,703.445c17.434,10.063,33.366,17.427,45.378,22.408V554.905h-45.378V703.445z"/>
</g>
<g>
	<polygon style="fill:#0C1823;" points="671.489,672.477 604.485,690.27 620.783,667.983 	"/>
</g>
<g>
	<polygon style="fill:#0C1823;" points="320.57,672.477 387.573,690.27 371.275,667.983 	"/>
</g>
<g>
	<polygon style="fill:#34BEE7;" points="515.098,627.182 476.96,627.182 294.399,627.182 320.57,672.477 476.96,672.477 
		515.098,672.477 671.489,672.477 697.658,627.182 	"/>
</g>
<g>
	<polygon style="fill:#0C1823;" points="793.609,598.57 205.117,598.57 176.883,581.152 176.883,541.006 821.846,541.006 
		821.846,582.447 	"/>
</g>
<g>
	<path style="fill:#0C1823;" d="M792.141,536.69v-79.338h-56.722h-8.121h-56.724v23.91l-7.302-24.298H606.56l-7.391,24.658
		c-2.334-6.083-6.315-11.132-11.945-15.073c-8.843-6.188-21.138-9.197-37.593-9.197h-24.033h-23.002h-77.765v5.386
		c-8.562-4.531-18.74-6.876-30.179-6.876c-19.193,0-34.866,6.471-45.321,18.711c-1.025,1.2-1.983,2.451-2.893,3.738
		c-0.873-1.237-1.785-2.444-2.762-3.603c-10.404-12.33-25.986-18.847-45.067-18.847c-13.569,0-25.376,3.238-34.827,9.46v-7.97
		h-86.899v123.8h56.566v-37.983h9.022c2.298,7.896,5.874,14.688,10.791,20.474c10.456,12.303,26.082,18.805,45.189,18.805
		c19.064,0,34.667-6.518,45.125-18.853c1.008-1.189,1.948-2.428,2.844-3.699c0.908,1.29,1.863,2.544,2.884,3.746
		c10.456,12.304,26.082,18.806,45.192,18.806c19.062,0,34.665-6.518,45.123-18.853c2.878-3.396,5.299-7.129,7.272-11.219v28.776
		h55.704h0.941h51.373c5.613,0,10.56-0.605,14.904-1.599l-0.48,1.599h58.04l6.618-23.919h1.855l6.618,23.919h28.108H700.6h34.819
		h21.582h64.845V536.69H792.141z M298.442,534.436c-0.966-2.95-1.883-7.745-1.883-15.312c0-7.62,0.919-12.422,1.885-15.364
		c0.888,2.93,1.743,7.732,1.743,15.364C300.187,526.725,299.332,531.513,298.442,534.436z M394.487,534.436
		c-0.967-2.95-1.884-7.746-1.884-15.312c0-7.62,0.919-12.423,1.885-15.365c0.888,2.93,1.744,7.732,1.744,15.365
		C396.231,526.725,395.375,531.513,394.487,534.436z"/>
</g>
<ellipse style="fill:#F77308;" cx="497.998" cy="389.904" rx="152.142" ry="141.382"/>
<path style="fill:#F47F0B;" d="M488.093,248.15c0,0-141.445,10.178-142.634,150.421c0,0,7.133,117.623,143.822,134.587
	C489.281,533.158,305.046,360.116,488.093,248.15z"/>
<g>
	<g>
		<g>
			<g>
				<path style="fill:#FFFFFF;" d="M344,554.613h-13.839v-59.437h13.526c0.626,0,1.064-0.479,1.064-2.077v-25.404
					c0-1.598-0.313-2.716-1.064-2.716h-58.113c-0.939,0-1.44,1.118-1.941,2.396l-6.074,24.605l-6.951-24.286
					c-0.501-1.118-1.002-2.716-2.254-2.716h-61.244c-0.877,0-1.378,0.799-1.378,2.396v24.925c0,2.396,0.689,2.876,1.19,2.876h13.902
					v59.437h-13.589c-1.252,0-1.565,2.077-1.565,3.195v23.807c0,2.077,0.313,3.195,0.939,3.195h44.399
					c0.751,0,1.691-0.319,1.691-1.917v-25.404c0-2.077-0.313-2.876-1.065-2.876h-13.526v-60.235h0.125l24.61,88.036
					c0.438,2.077,1.065,2.396,1.691,2.396h5.887c0.814,0,1.44-0.799,1.878-1.917l25.8-90.113h0.188v61.833h-13.714
					c-0.626,0-1.252,0.799-1.252,2.077v25.404c0,1.917,0.626,2.716,1.252,2.716h59.115c0.939,0,1.565-0.799,1.565-2.396v-24.126
					C345.253,555.412,344.627,554.613,344,554.613z"/>
				<path style="fill:#FFFFFF;" d="M458.043,464.979h-43.585c-1.002,0-1.44,0.959-1.44,1.917v26.522
					c0,0.959,0.501,0.959,0.939,0.959h8.078l-10.02,28.12l-9.894-28.12h7.515c0.563,0,0.876-0.799,0.876-1.758v-25.403
					c0-1.918-0.563-2.237-1.252-2.237h-60.618c-0.501,0-0.877,1.118-0.877,2.237v24.765c0,1.917,0.626,2.396,1.127,2.396h13.902
					l32.313,89.314c0.25,0.479,0.501,1.118,0.876,1.118h16.031c0.188,0,0.752-0.16,1.127-0.959l32.188-89.474h13.213
					c0.501,0,0.689-0.799,0.689-1.758v-25.883C459.233,465.938,458.544,464.979,458.043,464.979z"/>
				<path style="fill:#FFFFFF;" d="M577.157,554.613h-14.466l-16.658-43.619l13.652-15.817h14.027c0.939,0,1.565-1.598,1.565-3.195
					v-22.209c0-3.994-0.626-4.793-1.565-4.793h-50.098c-1.565,0-1.879,1.598-1.879,3.195v23.008c0,3.835,0.501,3.994,1.44,3.994
					h13.338v0.319l-27.49,30.198v-30.518h7.89c1.691,0,2.38-0.799,2.38-2.396v-23.008c0-3.994-0.626-4.793-1.44-4.793H463.31
					c-1.127,0-1.565,1.598-1.565,3.515v23.487c0,2.396,0.626,3.195,1.252,3.195h13.965v59.437h-14.278
					c-0.501,0-0.939,1.278-0.939,3.195v23.008c0,2.876,0.438,3.994,1.064,3.994h49.033c1.064,0,1.503-1.118,1.503-2.716v-24.286
					c0-1.598-0.125-3.195-0.939-3.195h-3.381v-7.03l7.014-7.988l5.573,15.019h-4.384c-0.877,0-1.378,1.278-1.378,2.396v23.487
					c0,2.716,0.501,4.313,1.253,4.313h59.554c1.377,0,1.69-1.917,1.69-3.195v-23.327
					C578.347,555.892,577.908,554.613,577.157,554.613z"/>
				<path style="fill:#FFFFFF;" d="M679.362,525.534c3.944-4.953,12.398-14.859,12.398-30.517c0-17.576-12.086-30.038-22.481-30.038
					H582.11c-0.627,0-1.128,1.118-1.128,4.313v22.209c0,1.598,0.313,2.396,1.566,2.396h13.463v60.396h-14.027
					c-0.751,0-1.127,1.277-1.127,4.474v24.285c0,1.119,0.438,1.758,1.002,1.758h92.868c2.004,0,17.534-4.313,17.534-30.517
					C692.262,531.445,681.867,527.931,679.362,525.534z M648.865,555.252h-21.104v-16.936h21.604c2.692,0,6.388,3.834,6.388,9.427
					C655.754,552.696,652.685,555.252,648.865,555.252z M651.119,510.994h-23.357v-16.616h21.667c2.567,0,6.325,3.994,6.325,8.628
					S652.936,510.994,651.119,510.994z"/>
				<path style="fill:#FFFFFF;" d="M803.86,531.605h-22.856c-1.064,0-1.378,3.195-1.378,4.793v18.215h-36.259v-59.437h14.153
					c0.813,0,1.252-1.278,1.252-3.195v-22.688c0-3.195-0.751-4.313-1.69-4.313h-59.24c-0.939,0-1.44,1.118-1.44,2.716v24.605
					c0,1.598,0.501,2.876,1.252,2.876h13.84v59.437h-13.589c-1.253,0-1.629,1.598-1.629,2.876v24.126
					c0,2.077,0.627,3.195,1.253,3.195h106.521c0.626,0,1.377-1.118,1.377-3.994v-44.737
					C805.426,532.884,804.675,531.605,803.86,531.605z"/>
			</g>
		</g>
	</g>
	<text transform="matrix(0.392 0 0 1 209.1694 584.377)" style="fill:#231F20; font-family:'BlackoakStd'; font-size:159.7676;">MVKBL</text>
	<text transform="matrix(0.392 0 0 1 216.2998 582.8779)" style="fill:#34BEE7; font-family:'BlackoakStd'; font-size:159.7676;">MVKBL</text>
</g>
</svg>
